<svg width="238" height="71" viewBox="0 0 238 71" fill="none" xmlns="http://www.w3.org/2000/svg"><g id="college"><g id="Group"><g id="College" font-family="Gibson" white-space="pre" letter-spacing="0"><text id="Sciences" fill="#2C2C2C" font-size="36" font-weight="600"><tspan x="96" y="63.8">Sciences</tspan></text><text id="Arts" fill="#2C2C2C" font-size="36" font-weight="600"><tspan x="1" y="63.8">Arts</tspan></text><text id="The College of" fill="#999" font-size="28" font-weight="300"><tspan x="0" y="28.4">The College of</tspan></text></g></g><g id="&amp;/semi"><path id="&amp;" d="M96.32 63.584l-5.78-6c1.363-1.363 4.15-4.038 4.74-5.67h-5.432c-.545 1.183-.993 1.632-2.473 2.32l-3.35-3.792c2.466-1.325 4.785-3.57 4.785-6.516 0-3.938-3.46-5.926-7.509-5.926-4.086 0-7.804 1.988-7.804 6.074 0 2.466 1.399 4.123 2.614 5.485C72.835 50.958 70 53.203 70 56.847c0 5.043 4.197 7.473 8.908 7.473 3.313 0 5.559-1.068 8.136-3.166l2.503 2.724h6.773v-.294zM83.804 44.11c0 1.62-1.693 2.687-2.797 3.386l-.847-.92c-.405-.479-1.215-1.288-1.215-2.393 0-1.399.994-2.245 2.467-2.245 1.435 0 2.392.773 2.392 2.172zm.074 13.693c-.957 1.068-2.687 2.135-4.565 2.135-1.914 0-3.57-1.288-3.57-3.276 0-1.95 1.509-2.981 2.687-3.644l.736-.405 4.712 5.19z" fill="#B31414"/></g></g></svg>