<svg fill="#000" height="100" viewBox="0 0 100 100" width="100" xmlns="http://www.w3.org/2000/svg"><path d="m38.4239 76.185c5.6659 4.454 11.2487 6.8094 11.4845 6.9062l.4317.1815.4348-.1845c.2328-.103 5.7955-2.4892 11.4445-6.8971 7.6039-5.933 11.6264-12.6871 11.6264-19.5395l-.0046-31.3242-47.0576.0046-.0031 30.7768c0 7.1369 4.0256 14.0755 11.6434 20.0762zm10.8447-9.603c-.2405-.083-.5088-.1445-.8433-.1445h-.054c-1.144 0-2.0012.0784-2.9108.1584-.8958.0845-1.8255.1675-3.1899.1967-.6244.0139-1.1887.0077-1.6127 0v-14.7288h.1943c.5658.0046 1.2611 0 2.1353-.0169.7369-.02 1.5495-.1076 2.4884-.206.5165-.0569 1.0653-.1138 1.682-.1692.976-.1045 1.8794.0692 1.8794.0692l.2313.0754zm22.3478-9.9304c0 12.8239-15.7922 21.5152-20.4422 23.7937v-11.6663l.2344-.2429c.2328-.269.3792-.4289.8233-.432 1.0761.0154 1.8855.0692 2.806.1522.8819.0784 1.8794.1722 3.2978.2014 1.4015.0369 2.493-.0246 2.5362-.0292l.7909-.043v-4.3572h1.8517v-2.3231h-1.8517v-4.2203h1.8517v-2.3216h-1.8548v-4.74l-.814-.0184c-.2991-.0092-.6429-.0092-1.0484-.0062-.5674-.0077-1.2411 0-2.0953-.0215-.6675-.0138-1.4477-.0953-2.3511-.1922-.5242-.0569-1.087-.1168-1.6759-.1676-1.2627-.1476-2.3805.0831-2.4453.1l-.0555.0153v-4.4755h20.4407zm-20.4422 10.0042v-14.7673c.1095-.0507.2375-.103.4132-.1414.0124-.0046.9158-.1876 1.9211-.0723.5966.0523 1.1501.1092 1.6681.1691.9374.0954 1.7484.183 2.4854.203.7431.0169 1.3598.0169 1.8809.0169h.4456l.003 14.7288c-.4239.0077-.9867.0185-1.6142 0-1.3644-.0292-2.291-.1122-3.1883-.1952-.9189-.0846-1.7438-.163-2.9618-.1599-.4301 0-.7662.0922-1.053.2183zm-22.1658-39.1006 42.6049-.0062.0016 15.8835h-42.6081zm-.0016 18.102h20.2618v4.4325c-.3315-.0584-1.2581-.1922-2.2772-.0753-.6043.0538-1.164.1137-1.6882.1706-.9065.0969-1.6867.1784-2.3558.1922-.8541.0215-1.5356.0215-2.0952.0215-.404 0-.7493 0-1.0515.0062l-.8156.0184v4.2788h-2.0028v2.3277h2.0028v4.2787h-2.0028v2.3185h2.0028v4.7585l.7894.043c.0447.0046 1.1316.06 2.5377.0292 1.4184-.0292 2.4159-.123 3.2978-.2014.9081-.0799 1.6929-.1522 2.7613-.1522.4209-.0062.5597.1261.7878.4105l.1095.1245v11.7047c-4.9136-2.4092-20.2618-11.0005-20.2618-24.235z"/><path d="m46.7956 29.1449h-11.89v.8302c-.0031 2.5906-.0046 6.9693.0108 7.1692.057.8979.6506 1.7096 1.8177 2.483 1.4354.9609 3.5753 2.2109 3.6648 2.2647l.4085.2383.4117-.226c.0971-.0508 2.4067-1.3084 3.8482-2.277 1.6867-1.1193 1.716-2.1432 1.7283-2.483.0124-.183.0077-4.0005 0-7.1692zm-10.2157 1.6635h8.5491c0 .6934.0015 1.436.0015 2.1586h-8.5537c0-.721 0-1.4652.0031-2.1586zm8.546 6.2882c-.0123.4151-.5442.8533-.9883 1.147-1.0237.6872-2.5701 1.5636-3.3024 1.971-.6969-.4151-2.1431-1.2838-3.1683-1.971-.6692-.4443-1.0654-.8825-1.087-1.2085-.0031-.1214-.0031-1.11-.0031-2.4015h8.5537c0 1.3007-.0015 2.3062-.0046 2.463z"/><path d="m67.0296 28.7913h-12.1567v.8317c-.0016 3.2548-.0016 7.1677.0092 7.3706.0694.904.6753 1.7327 1.864 2.5199 1.4662.9855 3.6601 2.2677 3.7511 2.3216l.407.2383.4148-.2276c.0971-.0507 2.4699-1.336 3.9515-2.3323 1.7283-1.1485 1.7545-2.1924 1.7591-2.5368.0139-.186.0093-4.102.0016-7.3552zm-1.6682 8.1485c-.0107.4305-.5612.8825-1.0191 1.1961-1.0591.7027-2.661 1.6051-3.4088 2.0203-.7092-.4198-2.197-1.3176-3.2577-2.0203-.3253-.2198-1.09-.781-1.1224-1.2684-.0031-.0446-.0031-.2014-.0062-.4381l4.2136-3.0319 4.6037 3.0595c0 .2552-.0015.4259-.0031.4828zm-4.6376-5.5748-4.1797 3.0118c-.0031-1.1961-.0031-2.6413 0-3.9189h8.8173c.0031 1.3022.0062 2.7797.0062 4.0004z"/><path d="m53.345 55.1864.794.0815c.5396.0614 1.0067.106 1.4138.1183l2.4606.0692.037-1.6697-2.4545-.0691c-.37-.0047-.7863-.0523-1.2781-.1031l-.8109-.083c-.2205-.023-.4256-.0261-.6183-.0184l.0725 1.662c.1171-.0046.2436 0 .3839.0123z"/><path d="m55.6068 58.3351c-.3485-.0092-.7509-.0538-1.2103-.1015-.2744-.0338-.5689-.0615-.868-.0876-.2143-.0231-.4178-.0262-.6028-.0231l.0277 1.6666c.1187-.0031.2513 0 .407.0154.3084.0277.5936.0584.8588.0846.5119.0553.959.0999 1.349.1122.5119.0061 1.2612.0307 1.8162.0415l.6445.0184.0354-1.6635-.6382-.0184c-.5566-.0139-1.3075-.0369-1.8193-.0446z"/><path d="m55.596 63.0935c-.3592-.0123-.7663-.0553-1.2319-.1092-.2744-.0276-.5596-.0568-.8464-.0845-.222-.0231-.4271-.0292-.6167-.0231l.0524 1.662c.1126 0 .2421 0 .3947.0185.2929.0276.5735.0599.8326.083.5226.0615.9744.103 1.3721.1153l.6938.0184c.7061.0185 1.494.0385 1.77.0446l.0293-1.6696c-.276-.0062-1.0562-.0216-1.7546-.0416z"/><path d="m45.0442 55.3662c.4055-.0092.8726-.0584 1.4122-.1199.2529-.0246.5181-.0522.8002-.083l.3793-.0123.0262-1.6697c-.1696 0-.3623.0077-.5597.0262-.296.0261-.5689.0584-.8248.0861-.4841.0507-.8989.0999-1.272.106l-2.4545.06.0386 1.6712z"/><path d="m46.2915 58.1998c-.4841.0538-.905.1015-1.272.1092l-2.4575.0661.04 1.6681 2.4561-.0646c.4101-.0107.8741-.0615 1.4153-.1199l.7832-.0815.3654-.0107.0755-1.6651c-.1726-.0092-.3731 0-.5827.0184z"/><path d="m46.2791 62.9567c-.4841.0507-.9035.1014-1.3537.1076-.7755.0215-2.0089.0584-2.3712.0676l.0308 1.6651c.3639-.0092 1.6035-.043 2.4622-.063.4055-.0108.8711-.0631 1.4154-.123l.8094-.0784.3608-.0139.0277-1.6666c-.1773-.003-.3731 0-.5581.0185z"/><path d="m7.92788 50.0728c2.09222 0 3.37182-1.333 3.52602-3.6484.0231-.4551-.0093-.9579-.1234-1.5775l-.04-.2044-1.72527-.0154.16343.3551c.12334.2722.1958.8549.16805 1.3422-.07863 1.2054-.98827 1.9403-2.26793 1.8527-1.30124-.0815-2.12917-.9225-2.0567-2.0987.02312-.3812.09096-.8025.40702-1.2745l.2143-.3321-1.70056-.2506-.08017.1706c-.2143.4597-.36231 1.0455-.39469 1.5621-.14801 2.42 1.19332 3.959 3.59076 4.1081z"/><path d="m8.20227 41.895c.46253.1292.91272.1968 1.33825.1968 1.58798 0 2.76128-.924 3.21918-2.5352.2744-.9625.1974-1.8727-.2251-2.626-.461-.8333-1.2997-1.4283-2.4175-1.7435-.44708-.1276-.87877-.1891-1.28888-.1891-1.59726 0-2.77362.9209-3.22844 2.5306-.59358 2.0695.40548 3.7391 2.60249 4.3664zm-1.1039-3.9451c.25131-.8994 1.01756-1.087 1.61422-1.087.28369 0 .5905.0477.89114.1307.72927.2091 1.30127.5889 1.55717 1.0486.1804.3228.2143.6857.1033 1.09-.259.901-1.0129 1.087-1.5988 1.087-.29756 0-.6167-.0461-.94972-.1415-.94973-.269-1.94416-.987-1.61731-2.1278z"/><path d="m15.3992 32.5442-2.4606-1.313.0786-.1507c.2328-.4381.4101-.4012.7909-.3536l2.4005.3029.9482-1.7834-3.1914-.3321c-.2112-.0154-.444-.0093-.6229.0353.0262-.6795-.3268-1.316-.9713-1.6589-.3608-.1906-.7108-.2875-1.033-.2875-1.164 0-1.78534 1.1715-2.33266 2.2078l-.83409 1.5636 6.36905 3.3855zm-3.7495-2.2016-.0925.1629-1.1548-.6165.0879-.1614c.2898-.5351.6012-.9809 1.0961-.7211.1743.0969.276.2045.3223.3429.0894.2905-.108.7057-.259.9932z"/><path d="m19.3785 26.2868-3.2716-2.709 4.6438 1.0547 1.2935-1.5529-5.5565-4.5985-1.1286 1.3668 3.2732 2.7074-4.6376-1.0716-1.3013 1.5682 5.555 4.5909z"/><path d="m27.4065 18.5057-.9837-1.2069-2.012 1.6343-.8757-1.0731 1.8378-1.4868-.9929-1.2053-1.8301 1.4882-.7261-.8948 1.9996-1.622-.9852-1.2069-3.4165 2.7767 4.5528 5.5825z"/><path d="m33.3992 14.9403-.7724-1.3622-2.234 1.2546-2.7752-4.9122-1.5972.901 3.5368 6.2651z"/><path d="m39.4568 12.6234-.535-1.4591-2.4113.8702-1.9272-5.29961-1.7237.62114 2.4545 6.76177z"/><path d="m46.7216 11.4334c.1434 0 .2914-.0077.441-.0231.9975-.0846 1.7329-.3951 2.1877-.9271.4255-.50889.6044-1.21151.5288-2.08786l-.3731-4.51552-1.8239.1476.3392 4.10655c.1218 1.44982-.4594 1.68352-.9805 1.73271l-.1357.00462c-.4271 0-1.0114-.16144-1.127-1.5513l-.3361-4.10501-1.8255.15067.3762 4.51551c.1372 1.66813 1.0777 2.55223 2.7289 2.55223z"/><path d="m54.9823 7.13771 1.5572 4.49399 2.0105.2706.9682-7.13228-1.7561-.23676-.5689 4.20802-1.5572-4.49399-2.0135-.27213-.9652 7.13384 1.7561.2383z"/><path d="m64.9359 6.30902-1.7452-.55041-2.1616 6.87399 1.7453.5427z"/><path d="m73.9784 10.3525-1.6466-.82558-3.4813 3.53158.7724-4.89377-1.7453-.88711-1.0715 7.52898 1.7761.8917z"/><path d="m75.7854 20.6412.962-1.2192-2.0505-1.5989.8541-1.0932 1.8594 1.4545.9589-1.2254-1.8609-1.4544.7108-.9056 2.032 1.5836.9636-1.2208-3.472-2.709-4.4434 5.6671z"/><path d="m78.7732 23.6608 2.0953-1.8342.1141.1353c.2698.3059.2775.4351.0555.864l-1.1332 2.1294 1.3367 1.5175 1.4431-2.8689c.0508-.1046.1526-.3275.1881-.5842.6167.269 1.3598.1476 1.8979-.3198 1.5541-1.3622.3114-2.7767-.5952-3.8068l-1.1871-1.3483-5.427 4.7476zm4.246-3.7161.1265.14c.2559.2982.5242.6318.4995.9086l-.2112.3659-.4009.1783c-.3099 0-.6275-.3167-.8711-.5919l-.1218-.1399z"/><path d="m85.4968 29.4185c-.3531.2076-.7971-.146-.9991-.4843-.2251-.3812-.3546-.8609-.3715-1.3775l-.0124-.3752-1.6527.7595.1171.369c.1635.5551.2652.8918.6152 1.4837.5874.9886 1.3675 1.5359 2.197 1.5359.3839 0 .7724-.1138 1.1579-.349 1.2796-.7503 1.0792-1.9464.9343-2.8212-.1033-.6181-.1496-1.0009.1064-1.1531l.3623-.1092c.3299 0 .5504.3137.6321.4459.2081.3536.3469.7749.4039 1.2069l.0432.3336 1.5017-.678-.0401-.1968c-.1049-.5089-.3115-1.0178-.6291-1.5575-.7863-1.3176-2.0782-1.745-3.2808-1.0331-1.235.7272-1.0561 1.8972-.922 2.7474.1079.6765.1526 1.0685-.1634 1.253z"/><path d="m86.3248 35.9343 6.6804-2.7213-.6907-1.6866-6.6789 2.7183z"/><path d="m93.0314 38.2974-5.4933 1.3468.4363 1.7758 5.4933-1.353.4548 1.8434 1.5125-.372-1.3444-5.4488-1.5187.3675z"/><path d="m88.804 47.0178.1033 1.8235 2.8337-.1584 4.5112 2.3077-.1048-1.9787-2.6349-1.3037 2.473-1.5483-.1172-2.1386-4.2306 2.8397z"/><path d="m9.33397 63.4917 1.49703-.4335-.6275-2.1709 1.1055-.3183.6629 2.2831 1.4955-.4335-1.1686-4.0435-6.93949 1.9925.51804 1.7635 2.82758-.8164z"/><path d="m15.7631 69.4571c.2806-.8303.1927-1.7527-.2652-2.6721-.6383-1.2977-1.6975-2.011-2.9663-2.011-.6137 0-1.2566.1629-1.9103.4827-1.05609.5166-1.77301 1.2561-2.07057 2.1386-.28368.8226-.18964 1.745.26827 2.666.6352 1.2853 1.6975 1.9956 2.9956 1.9956.6198 0 1.2674-.163 1.9149-.4782 1.0268-.5058 1.7283-1.2376 2.0336-2.1216zm-2.8708.4166c-.461.2275-.9127.3444-1.3151.3444-.629 0-1.0823-.286-1.3614-.8441-.1865-.3828-.22353-.7533-.1002-1.1085.1696-.495.6599-.9701 1.3444-1.3053.4256-.2075.865-.3213 1.2643-.3213.6398 0 1.1054.2813 1.3737.8348.1865.3782.2158.7503.0925 1.1101-.1712.5027-.646.9763-1.2982 1.2899z"/><path d="m20.7337 75.0319-3.23 2.5645c-.8711.6934-1.494.7564-1.9966.126-.205-.2583-.2914-.5073-.259-.7579.0432-.3567.3269-.7411.8449-1.1531l3.2269-2.5584-1.1486-1.4375-3.5553 2.8136c-.7385.5873-1.1347 1.2422-1.1625 1.9572-.0355.6595.2498 1.3729.8387 2.1047.7.881 1.4508 1.3253 2.2402 1.3253.5859 0 1.1872-.2429 1.7931-.7241l3.5583-2.8213z"/><path d="m26.873 80.8881-2.6981 3.284 1.0284-4.6508-1.5958-1.2946-4.5744 5.5672 1.3876 1.1192 2.6981-3.2871-1.0145 4.6693 1.5742 1.2884 4.5744-5.5687z"/><path d="m32.2029 84.292-1.8594-.9302-3.2469 6.4312 1.8593.9286c.8958.449 1.6759.6642 2.3928.6642 1.2473 0 2.2279-.6811 2.9093-2.034 1.0762-2.1325.387-3.8345-2.0551-5.0598zm.353 4.2034c-.3715.7487-1.0175 1.1685-1.7715 1.1685-.3083 0-.6136-.0754-.8895-.2122l-.4456-.2199 1.8424-3.6576.4425.2245c.464.2321.8217.638.9821 1.1177.1619.5012.1079 1.0486-.1604 1.579z"/><path d="m36.1852 93.7873 4.3185 1.147.3993-1.4975-2.5377-.6796.3531-1.3329 2.308.615.4054-1.4991-2.308-.618.2945-1.1116 2.5177.6672.407-1.499-4.303-1.1469z"/><path d="m46.8296 88.5384-2.0845-.1199-.4009 7.1861 2.0737.1199c.1603.0092.3145.0108.4749.0108 2.4174 0 3.711-1.1347 3.8389-3.3717.0602-1.1115-.1927-1.991-.7585-2.6244-.6537-.7241-1.6836-1.1208-3.1436-1.2008zm-.0633 5.6456-.4964-.0246.2374-4.0789.4872.0246c.9713.0507 1.9164.8118 1.8424 2.1463-.0817 1.3853-1.1316 1.9864-2.0706 1.9326z"/><path d="m57.0853 87.9927-1.2257 7.6211 1.8871-.4074.2498-1.6143 2.3173-.5058.8818 1.3883 1.9797-.4305-4.2738-6.4373zm1.1363 3.9574.2313-1.8788.9851 1.6174z"/><path d="m63.9446 91.7118.6244 1.7296 1.7376-.6242-.6337-1.7327z"/><path d="m67.4598 84.4304-1.8347.9855 3.4459 6.3297 1.8254-.9901c2.399-1.2946 3.0388-3.0165 1.8994-5.1152-1.1301-2.0848-2.9416-2.5122-5.336-1.2099zm2.9232 4.8353-.4332.2367-1.9535-3.5884.4379-.2383c.2883-.1584.6167-.2445.9436-.2445.7292 0 1.3675.4121 1.7499 1.107.6352 1.1777.1079 2.2662-.7447 2.7275z"/><path d="m74.171 86.6966 1.0608 1.5144 1.514-1.0516-1.0531-1.5144z"/><path d="m77.0526 77.4841-.3207 2.8259 1.585.2167.1326-1.1807 3.4427 3.4869 1.3151-1.2945-5.0677-5.1259z"/><path d="m86.8305 73.7158c-.5982-.4412-1.2751-.5135-2.0228-.2245.0123-.7087-.3577-1.3145-.7971-1.6404-.8988-.6581-2.0999-.2875-2.9787.8979-.8726 1.1746-.794 2.363.2082 3.1072.501.3674 1.1501.452 1.7761.2306-.0463.7856.2066 1.3714.7678 1.7804.4024.2998.8248.4489 1.2549.4489.7262 0 1.4508-.4413 2.0506-1.2438.5026-.6857.7262-1.373.629-1.991-.0771-.5335-.3762-.9871-.888-1.3653zm-3.4289.5258c-.2559.1599-.5257.2998-.7632.2998l-.3037-.0922c-.3531-.2675-.1773-.7026-.0185-.9148.1203-.1661.2698-.2475.4409-.2475l.3809.1399c.2173.1629.3114.5381.2636.8148zm2.4776 1.9403c-.2436.329-.7046.4259-1.0176.1968-.2898-.2153-.3792-.5074-.3037-.9963.5181-.3367.8973-.3936 1.2226-.1522.1496.1122.2375.2522.2621.4105.0262.1707-.0323.3644-.1634.5412z"/><path d="m90.1036 66.6804c-1.2489-.6242-2.4391-.2552-3.0404.944-.1665.3398-.2359.6673-.2035.9901-.4486-.3674-.8557-.9394-.5011-1.642.1773-.3597.4117-.5981.7-.8487l.2436-.2075-1.3275-.9517-.1495.1476c-.37.3582-.6614.7595-.8881 1.2161-.3577.7165-.4255 1.4083-.2019 2.0756.3916 1.1654 1.5772 1.9572 2.5022 2.4169.8048.4059 1.494.6011 2.0937.6011.9159 0 1.605-.4535 2.0537-1.3483.6999-1.396.2312-2.6337-1.2812-3.3932zm-.0632 2.7228c-.1157.2368-.2961.3521-.5535.3521-.1773 0-.3793-.0553-.5905-.163-.3546-.1768-.5967-.3951-.6645-.6211-.0463-.1322-.0309-.2644.0385-.4105.1095-.2152.2852-.3198.5427-.3198.1958 0 .424.0615.6583.1784.3069.1537.5304.369.6029.5888z"/><path d="m92.6614 59.4128c-1.4431-.4305-2.6056.2199-3.0142 1.6036l-.0848.3521-.8464-.2691.737-2.4753-1.4416-.4243-1.2349 4.1573 3.9993 1.2684-.0031-.3506c-.0031-.3874.0478-.7533.1588-1.1239.1033-.3444.4734-1.1946 1.2458-.9655.8202.246.6306 1.127.555 1.3929-.1434.4859-.4301.8364-.6691 1.1255l-.2313.2813 1.6836.5535.1018-.1829c.2775-.4828.5226-1.044.6521-1.4914.2529-.841.219-1.6159-.0956-2.2401-.296-.5811-.831-1.0101-1.5124-1.2115z"/><path d="m13.7634 49.8037c0 20.0039 16.3118 36.2717 36.367 36.2717 20.0537 0 36.3671-16.2678 36.3671-36.2717 0-19.9946-16.3134-36.264-36.3671-36.264-20.0552 0-36.367 16.2694-36.367 36.264zm36.367-35.0064c19.3584 0 35.1105 15.7082 35.1105 35.0064 0 19.3089-15.7521 35.0141-35.1105 35.0141-19.3629 0-35.1104-15.7052-35.1104-35.0141 0-19.2982 15.7475-35.0064 35.1104-35.0064z"/><path d="m50.1304.206848c-27.4263 0-49.740202 22.250052-49.740202 49.603052 0 27.3437 22.313902 49.5984 49.740202 49.5984 27.4279 0 49.7387-22.2547 49.7387-49.5984 0-27.353-22.3108-49.603052-49.7387-49.603052zm0 97.906852c-26.7109 0-48.43896-21.6674-48.43896-48.3038 0-26.635 21.72806-48.30697 48.43896-48.30697 26.711 0 48.4406 21.67197 48.4406 48.30697 0 26.6364-21.7296 48.3038-48.4406 48.3038z"/></svg>