<svg xmlns="http://www.w3.org/2000/svg" xmlns:xlink="http://www.w3.org/1999/xlink"><symbol viewBox="0 0 237 57" id="College" xmlns="http://www.w3.org/2000/svg"><g fill="none" fill-rule="evenodd"><text fill="#2C2C2C" font-family="Gibson-SemiBold, Gibson" font-size="36" font-weight="500" transform="translate(0 -8)"><tspan x="96" y="64">Sciences</tspan></text><text fill="#2C2C2C" font-family="Gibson-SemiBold, Gibson" font-size="36" font-weight="500" transform="translate(0 -8)"><tspan x="1" y="64">Arts</tspan></text><text fill="#999" font-family="Gibson-Regular, Gibson" font-size="28" transform="translate(0 -8)"><tspan x="0" y="28">The College of</tspan></text></g></symbol><symbol viewBox="0 0 257 300" id="bars" xmlns="http://www.w3.org/2000/svg"><path d="M257.143 225v21.429c0 5.859-4.855 10.714-10.714 10.714H10.715c-5.859 0-10.714-4.855-10.714-10.714V225c0-5.859 4.855-10.714 10.714-10.714h235.714c5.859 0 10.714 4.855 10.714 10.714zm0-85.714v21.429c0 5.859-4.855 10.714-10.714 10.714H10.715c-5.859 0-10.714-4.855-10.714-10.714v-21.429c0-5.859 4.855-10.714 10.714-10.714h235.714c5.859 0 10.714 4.855 10.714 10.714zm0-85.715V75c0 5.859-4.855 10.714-10.714 10.714H10.715C4.856 85.714.001 80.859.001 75V53.571c0-5.859 4.855-10.714 10.714-10.714h235.714c5.859 0 10.714 4.855 10.714 10.714z"/></symbol><symbol viewBox="0 0 238 71" id="college2" xmlns="http://www.w3.org/2000/svg"><defs><path id="ca" d="M25 24.3v.28h-6.434l-2.377-2.587C13.74 23.986 11.609 25 8.462 25 3.986 25 0 22.692 0 17.902c0-3.461 2.692-5.594 5.804-6.923-1.154-1.294-2.482-2.867-2.482-5.21C3.322 1.89 6.853 0 10.734 0c3.846 0 7.133 1.888 7.133 5.63 0 2.797-2.203 4.93-4.545 6.188l3.181 3.602c.883-.673 1.364-1.22 1.976-2.203h5.052c-.804 1.293-2.727 4.09-4.02 5.384l5.489 5.7zM13.112 5.805c0-1.328-.91-2.063-2.273-2.063-1.398 0-2.342.804-2.342 2.133 0 1.05.769 1.818 1.153 2.273l.805.874c1.048-.664 2.657-1.678 2.657-3.217zm.07 13.007l-4.476-4.93-.699.385c-1.119.63-2.552 1.608-2.552 3.461 0 1.888 1.573 3.112 3.391 3.112 1.783 0 3.427-1.014 4.336-2.028z"/></defs><g fill="none" fill-rule="evenodd"><text fill="#2C2C2C" font-family="Gibson-SemiBold, Gibson" font-size="36" font-weight="500"><tspan x="96" y="64">Sciences</tspan></text><text fill="#2C2C2C" font-family="Gibson-SemiBold, Gibson" font-size="36" font-weight="500"><tspan x="1" y="64">Arts</tspan></text><text fill="#999" font-family="Gibson-Regular, Gibson" font-size="28"><tspan x="0" y="28">The College of</tspan></text><g transform="translate(71 40)"><mask id="cb" fill="#fff"><use xlink:href="#ca"/></mask><g fill="#B31B1B" mask="url(#cb)"><path d="M-8-8h40v40H-8z"/></g></g></g></symbol></svg>