<svg width="33" height="31" viewBox="0 0 33 31" fill="none" xmlns="http://www.w3.org/2000/svg"><g id="instagram" clip-path="url(#clip0)"><path id="Vector" d="M16.507 7.639c-4.4 0-7.95 3.506-7.95 7.854 0 4.348 3.55 7.855 7.95 7.855s7.95-3.507 7.95-7.855c0-4.348-3.55-7.854-7.95-7.854zm0 12.96c-2.844 0-5.169-2.29-5.169-5.106s2.318-5.106 5.169-5.106c2.85 0 5.169 2.29 5.169 5.106 0 2.817-2.325 5.107-5.169 5.107zm10.13-13.282c0 1.019-.83 1.832-1.854 1.832a1.839 1.839 0 0 1-1.855-1.832c0-1.011.83-1.832 1.855-1.832 1.024 0 1.854.82 1.854 1.832zm5.266 1.86c-.117-2.454-.685-4.628-2.505-6.42C27.585.968 25.385.408 22.901.284 20.34.14 12.667.14 10.106.283 7.63.4 5.43.96 3.61 2.751 1.79 4.542 1.23 6.716 1.105 9.17c-.145 2.53-.145 10.11 0 12.64.117 2.454.685 4.628 2.505 6.419 1.82 1.79 4.013 2.351 6.497 2.474 2.56.144 10.234.144 12.795 0 2.484-.116 4.684-.677 6.497-2.474 1.813-1.791 2.38-3.965 2.505-6.42.145-2.529.145-10.103 0-12.632zm-3.307 15.346a5.201 5.201 0 0 1-2.948 2.913c-2.041.8-6.885.615-9.141.615-2.256 0-7.106.178-9.14-.615a5.202 5.202 0 0 1-2.949-2.913c-.81-2.016-.622-6.801-.622-9.03 0-2.228-.18-7.02.622-9.03A5.202 5.202 0 0 1 7.366 3.55c2.041-.8 6.885-.615 9.141-.615 2.256 0 7.106-.178 9.14.615a5.202 5.202 0 0 1 2.949 2.912c.81 2.016.622 6.802.622 9.03 0 2.229.187 7.02-.622 9.03z" fill="#C4C4C4"/></g><defs><clipPath id="clip0"><path fill="#fff" transform="translate(.995 .176)" d="M0 0h31.017v30.635H0z"/></clipPath></defs></svg>