<svg width="238" height="71" viewBox="0 0 238 71" fill="none" xmlns="http://www.w3.org/2000/svg">
<path d="M115.044 56.44C115.044 54.208 114.144 52.696 113.1 51.652C111.984 50.536 110.328 49.888 109.644 49.636C108.852 49.312 107.016 48.664 105.936 48.232C104.82 47.8 103.416 47.224 103.416 45.712C103.416 44.2 104.784 43.48 106.656 43.48C108.528 43.48 110.76 44.56 112.2 46L114.684 41.932C112.992 40.24 109.68 38.872 106.8 38.872C103.92 38.872 101.652 39.664 100.248 40.852C98.808 42.04 97.656 43.912 97.656 46.288C97.656 48.628 98.52 50.068 99.6 51.076C100.68 52.12 101.94 52.588 102.552 52.876C103.38 53.236 105.252 53.884 106.332 54.28C107.412 54.676 109.248 55.324 109.248 57.016C109.248 58.672 107.808 59.572 105.936 59.572C104.028 59.572 101.256 58.312 99.456 56.44L96.576 60.688C98.592 62.56 101.796 64.432 105.396 64.432C108.06 64.432 110.364 63.784 112.128 62.38C113.928 60.976 115.044 58.816 115.044 56.44Z" fill="#2C2C2C"/>
<path d="M131.487 57.916C131.487 57.916 129.687 59.644 126.987 59.644C124.287 59.644 122.523 57.88 122.523 55.072C122.523 52.264 124.467 50.572 126.915 50.572C129.399 50.572 130.983 51.76 131.487 52.156L132.747 47.8C132.747 47.8 130.695 45.928 126.159 45.928C121.299 45.928 116.727 49.24 116.727 55.18C116.727 61.084 121.227 64.396 126.087 64.396C130.803 64.396 132.675 62.416 132.855 62.272L131.487 57.916Z" fill="#2C2C2C"/>
<path d="M141.367 41.212C141.367 39.448 140.035 38.224 138.091 38.224C136.147 38.224 134.815 39.448 134.815 41.212C134.815 43.012 136.147 44.2 138.091 44.2C140.035 44.2 141.367 43.012 141.367 41.212ZM140.971 46.252H135.211V64H140.971V46.252Z" fill="#2C2C2C"/>
<path d="M162.266 54.604C162.266 49.42 158.63 45.928 153.374 45.928C148.118 45.928 143.798 49.276 143.798 55.144C143.798 61.012 147.794 64.396 153.266 64.396C158.774 64.396 161.114 61.948 161.69 61.516L159.422 58.528C158.414 59.212 156.398 60.22 154.094 60.22C151.754 60.22 149.81 59.068 149.558 56.512H162.194C162.194 56.512 162.266 55.468 162.266 54.604ZM149.594 53.236C149.666 51.544 150.89 49.672 153.266 49.672C155.678 49.672 156.866 51.616 156.902 53.236H149.594Z" fill="#2C2C2C"/>
<path d="M182.34 53.524C182.34 49.24 181.008 45.928 175.86 45.928C173.304 45.928 171.684 47.224 170.712 48.808H170.64L170.676 46.252H164.916V64H170.676V55.216C170.676 52.66 171.36 50.644 173.844 50.644C176.22 50.644 176.58 52.408 176.58 54.748V64H182.34V53.524Z" fill="#2C2C2C"/>
<path d="M199.761 57.916C199.761 57.916 197.961 59.644 195.261 59.644C192.561 59.644 190.797 57.88 190.797 55.072C190.797 52.264 192.741 50.572 195.189 50.572C197.673 50.572 199.257 51.76 199.761 52.156L201.021 47.8C201.021 47.8 198.969 45.928 194.433 45.928C189.573 45.928 185.001 49.24 185.001 55.18C185.001 61.084 189.501 64.396 194.361 64.396C199.077 64.396 200.949 62.416 201.129 62.272L199.761 57.916Z" fill="#2C2C2C"/>
<path d="M220.836 54.604C220.836 49.42 217.2 45.928 211.944 45.928C206.688 45.928 202.368 49.276 202.368 55.144C202.368 61.012 206.364 64.396 211.836 64.396C217.344 64.396 219.684 61.948 220.26 61.516L217.992 58.528C216.984 59.212 214.968 60.22 212.664 60.22C210.324 60.22 208.38 59.068 208.128 56.512H220.764C220.764 56.512 220.836 55.468 220.836 54.604ZM208.164 53.236C208.236 51.544 209.46 49.672 211.836 49.672C214.248 49.672 215.436 51.616 215.472 53.236H208.164Z" fill="#2C2C2C"/>
<path d="M237.022 58.528C237.022 56.656 236.158 55.504 235.582 54.928C234.97 54.352 234.07 53.884 233.278 53.596C232.522 53.308 231.982 53.128 230.758 52.768C229.534 52.408 228.166 51.976 228.166 51.04C228.166 50.104 228.922 49.744 230.29 49.744C231.73 49.744 233.746 50.68 234.754 51.472L236.626 48.088C235.618 47.26 233.53 45.892 229.822 45.892C226.114 45.892 223.09 48.016 223.09 51.472C223.09 54.64 225.286 55.756 226.114 56.116C226.942 56.476 227.95 56.764 228.634 56.944C229.282 57.16 231.874 57.736 231.874 58.888C231.874 60.04 230.866 60.4 229.426 60.4C227.986 60.4 225.61 59.464 224.17 58.24L222.01 61.66C224.026 63.568 226.834 64.396 229.498 64.396C231.874 64.396 233.638 63.856 234.934 62.848C236.23 61.804 237.022 60.364 237.022 58.528Z" fill="#2C2C2C"/>
<path d="M16.2641 39.124H10.2161L0.856079 64H6.90408L8.66808 58.996H17.5241L19.2881 64H25.6241L16.2641 39.124ZM10.0001 54.46L13.0961 45.532L16.1921 54.46H10.0001Z" fill="#2C2C2C"/>
<path d="M39.3648 46.252C39.3648 46.252 38.7528 45.928 37.5648 45.928C35.6568 45.928 34.1808 46.828 33.1728 48.772H33.1008L33.1368 46.252H27.3768V64H33.1368V56.116C33.1368 54.136 33.6048 52.984 34.0368 52.408C34.4688 51.832 35.4048 51.112 36.7008 51.112C37.7088 51.112 38.4648 51.364 38.7888 51.544H39.0408L39.3648 46.252Z" fill="#2C2C2C"/>
<path d="M51.8827 46.288H47.9587V41.464H42.1627V46.288H39.6427V50.644H42.1627V57.52C42.1627 60.22 42.5227 61.696 43.4227 62.74C44.3227 63.784 45.6907 64.396 47.7427 64.396C49.8307 64.396 51.4147 63.928 51.8467 63.82L51.5587 59.32C51.5587 59.32 50.7307 59.644 49.8307 59.644C49.0747 59.644 48.7147 59.5 48.4627 59.212C48.1747 58.888 47.9587 58.528 47.9587 57.016V50.644H51.8827V46.288Z" fill="#2C2C2C"/>
<path d="M67.737 58.528C67.737 56.656 66.873 55.504 66.297 54.928C65.685 54.352 64.785 53.884 63.993 53.596C63.237 53.308 62.697 53.128 61.473 52.768C60.249 52.408 58.8811 51.976 58.8811 51.04C58.8811 50.104 59.6371 49.744 61.0051 49.744C62.4451 49.744 64.461 50.68 65.469 51.472L67.341 48.088C66.333 47.26 64.245 45.892 60.537 45.892C56.829 45.892 53.805 48.016 53.805 51.472C53.805 54.64 56.001 55.756 56.829 56.116C57.657 56.476 58.665 56.764 59.349 56.944C59.997 57.16 62.5891 57.736 62.5891 58.888C62.5891 60.04 61.581 60.4 60.141 60.4C58.701 60.4 56.325 59.464 54.885 58.24L52.725 61.66C54.741 63.568 57.5491 64.396 60.2131 64.396C62.5891 64.396 64.353 63.856 65.649 62.848C66.945 61.804 67.737 60.364 67.737 58.528Z" fill="#2C2C2C"/>
<path d="M15.283 4.61001H0.217041V7.12101H6.26204V26H9.26904V7.12101H15.283V4.61001Z" fill="black"/>
<path d="M30.5343 17.227C30.5343 13.724 29.5113 10.996 25.2643 10.996C23.1253 10.996 21.5133 12.143 20.7383 13.6H20.6763V4.61001H17.7313V26H20.6763V18.715C20.6763 15.77 21.8233 13.445 24.5203 13.445C27.2173 13.445 27.5583 15.553 27.5583 17.661V26H30.5343V17.227Z" fill="black"/>
<path d="M48.0137 18.033C48.0137 13.91 45.1307 10.996 41.0387 10.996C36.9467 10.996 33.5677 13.972 33.5677 18.622C33.5677 23.303 36.5747 26.341 40.9457 26.341C45.3477 26.341 47.2387 24.171 47.4247 24.016L46.1847 22.311C45.8437 22.528 44.0767 24.016 41.3177 24.016C38.5897 24.016 36.7297 22.249 36.5747 19.335H47.9207C47.9207 19.335 48.0137 18.591 48.0137 18.033ZM36.6057 17.351C36.6987 15.584 38.0007 13.135 40.9457 13.135C43.9217 13.135 45.1617 15.708 45.1927 17.351H36.6057Z" fill="black"/>
<path d="M73.6977 21.009C72.3027 22.528 70.1327 23.613 67.3117 23.613C62.7237 23.613 59.3447 20.296 59.3447 15.274C59.3447 10.252 62.6927 6.93501 67.3117 6.93501C70.2877 6.93501 72.6747 8.48501 73.5117 9.53901L74.7827 7.12101C73.6047 5.97401 71.1867 4.30001 67.1877 4.30001C61.0497 4.30001 56.2447 8.67101 56.2447 15.336C56.2447 22.001 60.9567 26.372 67.1877 26.372C71.2487 26.372 73.6667 24.698 74.9997 23.21L73.6977 21.009Z" fill="black"/>
<path d="M92.0582 18.684C92.0582 14.127 88.6482 10.996 84.2772 10.996C79.8752 10.996 76.4652 14.127 76.4652 18.684C76.4652 23.272 79.8752 26.341 84.2772 26.341C88.6482 26.341 92.0582 23.272 92.0582 18.684ZM89.0512 18.591C89.0512 21.505 87.2222 23.799 84.2772 23.799C81.3012 23.799 79.4722 21.505 79.4722 18.591C79.4722 15.708 81.3012 13.414 84.2772 13.414C87.2222 13.414 89.0512 15.708 89.0512 18.591Z" fill="black"/>
<path d="M98.2671 4.61001H95.3221V26H98.2671V4.61001Z" fill="black"/>
<path d="M105.624 4.61001H102.679V26H105.624V4.61001Z" fill="black"/>
<path d="M123.334 18.033C123.334 13.91 120.451 10.996 116.359 10.996C112.267 10.996 108.888 13.972 108.888 18.622C108.888 23.303 111.895 26.341 116.266 26.341C120.668 26.341 122.559 24.171 122.745 24.016L121.505 22.311C121.164 22.528 119.397 24.016 116.638 24.016C113.91 24.016 112.05 22.249 111.895 19.335H123.241C123.241 19.335 123.334 18.591 123.334 18.033ZM111.926 17.351C112.019 15.584 113.321 13.135 116.266 13.135C119.242 13.135 120.482 15.708 120.513 17.351H111.926Z" fill="black"/>
<path d="M140.548 11.275H137.603L137.634 13.6H137.541C136.673 12.236 134.968 10.996 132.395 10.996C128.613 10.996 125.296 13.724 125.296 18.405C125.296 23.086 128.613 25.814 132.395 25.814C134.875 25.814 136.549 24.667 137.541 23.179H137.603V23.923C137.603 25.938 137.076 27.333 136.487 28.046C135.898 28.79 134.658 29.658 132.457 29.658C130.256 29.658 127.962 28.48 127.187 27.798L125.792 29.875C126.226 30.185 128.737 32.076 132.364 32.076C136.022 32.076 137.851 30.588 138.936 29.255C140.021 27.953 140.548 26.155 140.548 22.9V11.275ZM137.696 18.405C137.696 21.195 136.053 23.396 133.015 23.396C130.008 23.396 128.334 21.195 128.334 18.405C128.334 15.615 130.008 13.383 133.015 13.383C136.053 13.383 137.696 15.615 137.696 18.405Z" fill="black"/>
<path d="M158.118 18.033C158.118 13.91 155.235 10.996 151.143 10.996C147.051 10.996 143.672 13.972 143.672 18.622C143.672 23.303 146.679 26.341 151.05 26.341C155.452 26.341 157.343 24.171 157.529 24.016L156.289 22.311C155.948 22.528 154.181 24.016 151.422 24.016C148.694 24.016 146.834 22.249 146.679 19.335H158.025C158.025 19.335 158.118 18.591 158.118 18.033ZM146.71 17.351C146.803 15.584 148.105 13.135 151.05 13.135C154.026 13.135 155.266 15.708 155.297 17.351H146.71Z" fill="black"/>
<path d="M181.849 18.684C181.849 14.127 178.439 10.996 174.068 10.996C169.666 10.996 166.256 14.127 166.256 18.684C166.256 23.272 169.666 26.341 174.068 26.341C178.439 26.341 181.849 23.272 181.849 18.684ZM178.842 18.591C178.842 21.505 177.013 23.799 174.068 23.799C171.092 23.799 169.263 21.505 169.263 18.591C169.263 15.708 171.092 13.414 174.068 13.414C177.013 13.414 178.842 15.708 178.842 18.591Z" fill="black"/>
<path d="M192.584 4.61001C192.584 4.61001 191.747 4.26901 190.042 4.26901C188.337 4.26901 187.159 5.07501 186.508 5.88101C185.888 6.65601 185.516 7.89601 185.516 9.81801V11.306H183.408V13.693H185.516V26H188.461V13.693H191.964V11.306H188.461V9.66301C188.461 7.98901 188.771 6.53201 190.724 6.53201C191.561 6.53201 192.398 6.81101 192.398 6.81101L192.584 4.61001Z" fill="black"/>
<path d="M96.32 63.5837L90.5406 57.5835C91.9027 56.2215 94.6904 53.5459 95.2799 51.9146H89.8479C89.3034 53.097 88.8545 53.5459 87.3749 54.2337L84.0251 50.4421C86.4914 49.1169 88.8105 46.8714 88.8105 43.9265C88.8105 39.9877 85.3503 37.9999 81.301 37.9999C77.215 37.9999 73.4971 39.9877 73.4971 44.0738C73.4971 46.5401 74.8959 48.1966 76.1107 49.5587C72.8345 50.9575 70 53.203 70 56.8473C70 61.8904 74.1965 64.3199 78.9083 64.3199C82.2213 64.3199 84.4668 63.2524 87.0436 61.1542L89.5467 63.8782H96.32V63.5837ZM83.8042 44.1106C83.8042 45.7303 82.1109 46.7978 81.0065 47.4972L80.1599 46.577C79.755 46.0984 78.9451 45.2886 78.9451 44.1842C78.9451 42.7854 79.939 41.9387 81.4115 41.9387C82.8471 41.9387 83.8042 42.7118 83.8042 44.1106ZM83.8778 57.8044C82.9207 58.8719 81.1906 59.9394 79.3132 59.9394C77.399 59.9394 75.7425 58.651 75.7425 56.6632C75.7425 54.7122 77.2518 53.6815 78.4298 53.0189L79.166 52.614L83.8778 57.8044Z" fill="#991C1C"/>
</svg>
